<svg width="800" height="400" xmlns="http://www.w3.org/2000/svg">
  <rect width="800" height="400" fill="#ffffff"/>
  <text x="400" y="15" text-anchor="middle" fill="#1f2937" font-size="16" font-weight="bold">Resource Usage</text>
  <line x1="60" y1="60" x2="60" y2="340" stroke="#e5e7eb" stroke-width="1"/><line x1="110" y1="60" x2="110" y2="340" stroke="#e5e7eb" stroke-width="1"/><line x1="160" y1="60" x2="160" y2="340" stroke="#e5e7eb" stroke-width="1"/><line x1="210" y1="60" x2="210" y2="340" stroke="#e5e7eb" stroke-width="1"/><line x1="260" y1="60" x2="260" y2="340" stroke="#e5e7eb" stroke-width="1"/><line x1="310" y1="60" x2="310" y2="340" stroke="#e5e7eb" stroke-width="1"/><line x1="360" y1="60" x2="360" y2="340" stroke="#e5e7eb" stroke-width="1"/><line x1="410" y1="60" x2="410" y2="340" stroke="#e5e7eb" stroke-width="1"/><line x1="460" y1="60" x2="460" y2="340" stroke="#e5e7eb" stroke-width="1"/><line x1="510" y1="60" x2="510" y2="340" stroke="#e5e7eb" stroke-width="1"/><line x1="560" y1="60" x2="560" y2="340" stroke="#e5e7eb" stroke-width="1"/><line x1="610" y1="60" x2="610" y2="340" stroke="#e5e7eb" stroke-width="1"/><line x1="660" y1="60" x2="660" y2="340" stroke="#e5e7eb" stroke-width="1"/><line x1="710" y1="60" x2="710" y2="340" stroke="#e5e7eb" stroke-width="1"/><line x1="60" y1="60" x2="740" y2="60" stroke="#e5e7eb" stroke-width="1"/><line x1="60" y1="90" x2="740" y2="90" stroke="#e5e7eb" stroke-width="1"/><line x1="60" y1="120" x2="740" y2="120" stroke="#e5e7eb" stroke-width="1"/><line x1="60" y1="150" x2="740" y2="150" stroke="#e5e7eb" stroke-width="1"/><line x1="60" y1="180" x2="740" y2="180" stroke="#e5e7eb" stroke-width="1"/><line x1="60" y1="210" x2="740" y2="210" stroke="#e5e7eb" stroke-width="1"/><line x1="60" y1="240" x2="740" y2="240" stroke="#e5e7eb" stroke-width="1"/><line x1="60" y1="270" x2="740" y2="270" stroke="#e5e7eb" stroke-width="1"/><line x1="60" y1="300" x2="740" y2="300" stroke="#e5e7eb" stroke-width="1"/><line x1="60" y1="330" x2="740" y2="330" stroke="#e5e7eb" stroke-width="1"/>
  <line x1="60" y1="340" x2="740" y2="340" stroke="#1f2937" stroke-width="2"/>
            <line x1="60" y1="60" x2="60" y2="340" stroke="#1f2937" stroke-width="2"/>
  <rect x="77" y="198.42696629213484" width="136" height="141.57303370786516" fill="#3b82f6"/><rect x="247" y="94.6067415730337" width="136" height="245.3932584269663" fill="#22c55e"/><rect x="417" y="239.32584269662922" width="136" height="100.67415730337078" fill="#f59e0b"/><rect x="587" y="60" width="136" height="280" fill="#ef4444"/>
  <text x="145" y="193.42696629213484" text-anchor="middle" fill="#1f2937" font-size="12">45</text><text x="315" y="89.6067415730337" text-anchor="middle" fill="#1f2937" font-size="12">78</text><text x="485" y="234.32584269662922" text-anchor="middle" fill="#1f2937" font-size="12">32</text><text x="655" y="55" text-anchor="middle" fill="#1f2937" font-size="12">89</text>
  <text x="145" y="375" text-anchor="middle" fill="#1f2937" font-size="12">CPU</text><text x="315" y="375" text-anchor="middle" fill="#1f2937" font-size="12">Memory</text><text x="485" y="375" text-anchor="middle" fill="#1f2937" font-size="12">Disk</text><text x="655" y="375" text-anchor="middle" fill="#1f2937" font-size="12">Network</text>
</svg>