<svg width="800" height="400" xmlns="http://www.w3.org/2000/svg">
  <defs>
    <linearGradient id="gradient" x1="0%" y1="0%" x2="0%" y2="100%">
      <stop offset="0%" style="stop-color:#00ff88;stop-opacity:1" />
      <stop offset="100%" style="stop-color:#00aa55;stop-opacity:0.3" />
    </linearGradient>
  </defs>
  <rect width="100%" height="100%" fill="#1a1a1a"/>
  <polyline points="50,217.6470588235294 137.5,197.05882352941177 225,179.41176470588235 312.5,158.8235294117647 400,138.23529411764704 487.5,120.58823529411762 575,99.99999999999997 662.5,79.41176470588232 750,50" fill="none" stroke="#00ff88" stroke-width="3"/>
  <polygon points="50,217.6470588235294 137.5,197.05882352941177 225,179.41176470588235 312.5,158.8235294117647 400,138.23529411764704 487.5,120.58823529411762 575,99.99999999999997 662.5,79.41176470588232 750,50 750,350 50,350" fill="url(#gradient)" opacity="0.3"/>
  <text x="50" y="370" fill="#888888" text-anchor="middle" font-family="Arial" font-size="10">1.0.0</text>
  <text x="137.5" y="370" fill="#888888" text-anchor="middle" font-family="Arial" font-size="10">1.0.6</text>
  <text x="225" y="370" fill="#888888" text-anchor="middle" font-family="Arial" font-size="10">1.0.14</text>
  <text x="312.5" y="370" fill="#888888" text-anchor="middle" font-family="Arial" font-size="10">1.0.26</text>
  <text x="400" y="370" fill="#888888" text-anchor="middle" font-family="Arial" font-size="10">1.1.0</text>
  <text x="487.5" y="370" fill="#888888" text-anchor="middle" font-family="Arial" font-size="10">1.1.12</text>
  <text x="575" y="370" fill="#888888" text-anchor="middle" font-family="Arial" font-size="10">1.2.0</text>
  <text x="662.5" y="370" fill="#888888" text-anchor="middle" font-family="Arial" font-size="10">1.3.0</text>
  <text x="750" y="370" fill="#888888" text-anchor="middle" font-family="Arial" font-size="10">1.3.7</text>
  <text x="400" y="390" fill="#ffffff" text-anchor="middle" font-family="Arial" font-size="14">Bun Version</text>
  <text x="20" y="200" fill="#ffffff" text-anchor="middle" font-family="Arial" font-size="14" transform="rotate(-90 20 200)">Total APIs</text>
</svg>